<svg width="140" height="24" viewBox="0 0 140 24" fill="none" xmlns="http://www.w3.org/2000/svg">
<g clip-path="url(#clip0_13084_2323)">
<path fill-rule="evenodd" clip-rule="evenodd" d="M20.9951 8.50224C20.9984 8.57777 21 8.65344 21 8.7292C21 9.38306 20.8774 10.0305 20.6393 10.6346C20.4011 11.2386 20.0521 11.7875 19.612 12.2497L18.6992 13.209L12.966 19.2345L11.9998 20.25L11.0335 19.2345L5.30029 13.209L4.38751 12.2497C3.4991 11.316 3 10.0496 3 8.7292C3 7.40876 3.4991 6.1424 4.38751 5.20871C5.27591 4.27502 6.48085 3.75047 7.73725 3.75047C8.96842 3.75047 10.1502 4.25417 11.0331 5.15298C11.0512 5.17139 11.0692 5.18997 11.087 5.20871L11.9998 6.16802L12.9126 5.20871C12.9304 5.18997 12.9483 5.17139 12.9664 5.15296C13.3948 4.71671 13.8979 4.36926 14.4493 4.12911C15.0213 3.88005 15.6341 3.75127 16.2531 3.75C15.7458 4.16066 15.3599 4.71544 15.1577 5.35205C15.1075 5.37095 15.0577 5.39116 15.0083 5.41268C14.6083 5.58687 14.2402 5.84419 13.927 6.17352L13.9268 6.17376L13.014 7.13307C12.7497 7.41081 12.3831 7.56802 11.9998 7.56802C11.6164 7.56802 11.2498 7.41081 10.9855 7.13307L10.0727 6.17376C9.44091 5.50971 8.59925 5.15047 7.73725 5.15047C6.87525 5.15047 6.03358 5.50971 5.40175 6.17376C4.76766 6.84017 4.4 7.75823 4.4 8.7292C4.4 9.70018 4.76766 10.6182 5.40175 11.2846L6.31453 12.244L11.9998 18.219L17.685 12.244L18.5978 11.2846L18.598 11.2844C18.9115 10.9551 19.1636 10.5604 19.3368 10.1211C19.4093 9.93731 19.4672 9.74764 19.51 9.55407C20.0972 9.34443 20.6093 8.97674 20.9951 8.50224Z" fill="#A2A2A2"/>
<path d="M18.993 3.73145H17.9055V5.90646H15.7305V6.99396H17.9055V9.16897H18.993V6.99396H21.168V5.90646H18.993V3.73145Z" fill="#A2A2A2"/>
</g>
<path d="M42.35 5.598V18H40.64V7.056H35.51V18H33.8V5.598H42.35ZM49.4205 8.298C50.7525 8.298 51.7845 8.742 52.5165 9.63C53.2605 10.518 53.6325 11.724 53.6325 13.248C53.6325 14.232 53.4645 15.102 53.1285 15.858C52.7925 16.602 52.3065 17.184 51.6705 17.604C51.0345 18.012 50.2785 18.216 49.4025 18.216C48.0705 18.216 47.0325 17.772 46.2885 16.884C45.5445 15.996 45.1725 14.79 45.1725 13.266C45.1725 12.282 45.3405 11.418 45.6765 10.674C46.0125 9.918 46.4985 9.336 47.1345 8.928C47.7705 8.508 48.5325 8.298 49.4205 8.298ZM49.4205 9.63C47.7765 9.63 46.9545 10.842 46.9545 13.266C46.9545 15.678 47.7705 16.884 49.4025 16.884C51.0345 16.884 51.8505 15.672 51.8505 13.248C51.8505 10.836 51.0405 9.63 49.4205 9.63ZM63.1404 8.514V18H61.4844V9.864H58.5504L58.2804 13.032C58.1724 14.316 58.0344 15.276 57.8664 15.912C57.7104 16.548 57.4584 17.04 57.1104 17.388C56.7744 17.724 56.2584 18 55.5624 18.216L55.1484 16.902C55.5564 16.758 55.8444 16.572 56.0124 16.344C56.1804 16.116 56.3064 15.768 56.3904 15.3C56.4744 14.832 56.5644 14.016 56.6604 12.852L57.0384 8.514H63.1404ZM70.3615 18.054C69.9895 19.158 69.4675 20.028 68.7955 20.664C68.1355 21.312 67.1875 21.702 65.9515 21.834L65.7715 20.538C66.3955 20.43 66.8935 20.274 67.2655 20.07C67.6375 19.866 67.9315 19.602 68.1475 19.278C68.3755 18.966 68.5855 18.54 68.7775 18H68.2195L65.0335 8.514H66.7975L69.3355 16.794L71.8195 8.514H73.5295L70.3615 18.054ZM81.9389 8.514V18H80.2829V14.04C79.9349 14.364 79.5029 14.622 78.9869 14.814C78.4829 14.994 77.9609 15.084 77.4209 15.084C76.5209 15.084 75.8429 14.844 75.3869 14.364C74.9309 13.872 74.7029 13.176 74.7029 12.276V8.514H76.3589V12.078C76.3589 12.678 76.4789 13.116 76.7189 13.392C76.9709 13.656 77.3549 13.788 77.8709 13.788C78.2909 13.788 78.7289 13.692 79.1849 13.5C79.6529 13.308 80.0189 13.062 80.2829 12.762V8.514H81.9389ZM92.7345 18H91.0965V13.716C91.0965 12.996 91.1205 12.312 91.1685 11.664C91.2165 11.016 91.2585 10.59 91.2945 10.386L87.3165 18H85.3545V8.514H86.9925V12.798C86.9925 13.434 86.9685 14.094 86.9205 14.778C86.8725 15.45 86.8365 15.882 86.8125 16.074L90.7365 8.514H92.7345V18ZM102.556 8.514L102.358 9.864H99.3155V18H97.6595V9.864H94.5275V8.514H102.556ZM107.185 11.574C108.601 11.574 109.627 11.85 110.263 12.402C110.899 12.954 111.217 13.74 111.217 14.76C111.217 15.828 110.857 16.638 110.137 17.19C109.429 17.73 108.547 18 107.491 18H104.269V8.514H105.925V11.574H107.185ZM107.347 16.704C108.019 16.704 108.535 16.554 108.895 16.254C109.267 15.954 109.453 15.456 109.453 14.76C109.453 14.1 109.279 13.614 108.931 13.302C108.595 12.99 108.007 12.834 107.167 12.834H105.925V16.704H107.347ZM126.684 5.598L123.246 11.412L127.026 18H125.046L121.806 12.186H120.114V18H118.404V5.598H120.114V10.782H121.824L124.884 5.598H126.684ZM137.553 5.598V18H135.843V7.056H130.713V18H129.003V5.598H137.553Z" fill="#A2A2A2"/>
<defs>
<clipPath id="clip0_13084_2323">
<rect width="18" height="18" fill="white" transform="translate(3 3)"/>
</clipPath>
</defs>
</svg>
