<svg width="32" height="32" viewBox="0 0 32 32" fill="none" xmlns="http://www.w3.org/2000/svg">
<circle cx="16" cy="16" r="16" fill="#FEC80B"/>
<g clip-path="url(#clip0_342_36356)">
<path d="M7 9.8125C7 8.67341 7.89543 7.75 9 7.75C10.1046 7.75 11 8.67341 11 9.8125C11 10.9516 10.1046 11.875 9 11.875C7.89543 11.875 7 10.9516 7 9.8125Z" fill="black"/>
<path d="M7 16C7 14.8609 7.89543 13.9375 9 13.9375C10.1046 13.9375 11 14.8609 11 16C11 17.1391 10.1046 18.0625 9 18.0625C7.89543 18.0625 7 17.1391 7 16Z" fill="black"/>
<path d="M7 22.1875C7 21.0484 7.89543 20.125 9 20.125C10.1046 20.125 11 21.0484 11 22.1875C11 23.3266 10.1046 24.25 9 24.25C7.89543 24.25 7 23.3266 7 22.1875Z" fill="black"/>
<path d="M12 8.78125H25V10.8438H12V8.78125Z" fill="black"/>
<path d="M12 14.9688H25V17.0312H12V14.9688Z" fill="black"/>
<path d="M12 21.1562H25V23.2188H12V21.1562Z" fill="black"/>
</g>
<defs>
<clipPath id="clip0_342_36356">
<rect width="18" height="18" fill="white" transform="translate(7 7)"/>
</clipPath>
</defs>
</svg>
