<svg width="24" height="24" viewBox="0 0 24 24" fill="none" xmlns="http://www.w3.org/2000/svg">
<g clip-path="url(#clip0_13084_8923)">
<path fill-rule="evenodd" clip-rule="evenodd" d="M10.3642 3.75C6.71129 3.75 3.75 6.77429 3.75 10.505C3.75 14.2356 6.71129 17.2599 10.3642 17.2599C11.95 17.2599 13.4055 16.69 14.5449 15.7397L19.0942 20.0619C19.3722 20.3261 19.8072 20.31 20.0659 20.0261C20.3245 19.7422 20.3088 19.2979 20.0308 19.0338L15.5148 14.7433C16.4303 13.5843 16.9784 12.11 16.9784 10.505C16.9784 6.7743 14.0172 3.75 10.3642 3.75ZM5.125 10.505C5.125 7.54984 7.47068 5.15426 10.3642 5.15426C13.2578 5.15426 15.6034 7.54984 15.6034 10.505C15.6034 13.4601 13.2578 15.8556 10.3642 15.8556C7.47068 15.8556 5.125 13.4601 5.125 10.505Z" fill="#A2A2A2"/>
</g>
<defs>
<clipPath id="clip0_13084_8923">
<rect width="18" height="18" fill="white" transform="translate(3 3)"/>
</clipPath>
</defs>
</svg>
