<svg width="40" height="40" viewBox="0 0 40 40" fill="none" xmlns="http://www.w3.org/2000/svg">
<path d="M27.1035 6.9502C28.0434 6.9502 28.9753 7.14446 29.8457 7.52344C30.6074 7.85515 31.3104 8.32277 31.9229 8.90625L32.1797 9.16406C32.8497 9.86798 33.3836 10.7056 33.748 11.6299C34.1124 12.5542 34.2998 13.5464 34.2998 14.5488C34.2998 15.5513 34.1125 16.5434 33.748 17.4678C33.4292 18.2765 32.9807 19.0186 32.4248 19.6631L32.1797 19.9336L30.6582 21.5322L19.999 32.7344L9.34082 21.5322L7.81934 19.9336C6.46596 18.5111 5.70023 16.5747 5.7002 14.5488C5.7002 12.523 6.46601 10.5865 7.81934 9.16406C9.17173 7.74273 10.9987 6.95117 12.8955 6.95117C14.7922 6.9512 16.6183 7.7428 17.9707 9.16406H17.9717L19.4922 10.7627C19.6243 10.9016 19.8083 10.9805 20 10.9805C20.1915 10.9804 20.3748 10.9015 20.5068 10.7627L22.0283 9.16406C22.698 8.45993 23.4909 7.90254 24.3613 7.52344C25.2317 7.14442 26.1636 6.95024 27.1035 6.9502Z" stroke="black" stroke-width="1.4" stroke-linecap="round" stroke-linejoin="round"/>
</svg>
