<svg width="32" height="32" viewBox="0 0 32 32" fill="none" xmlns="http://www.w3.org/2000/svg">
<g opacity="0.4">
<rect x="0.5" y="0.5" width="31" height="31" rx="3.5" stroke="white"/>
<g clip-path="url(#clip0_13025_19480)">
<path d="M20.2964 10.9038C19.8546 10.9038 19.4964 11.262 19.4964 11.7038C19.4964 12.1457 19.8546 12.5038 20.2964 12.5038H20.3039C20.7458 12.5038 21.1039 12.1457 21.1039 11.7038C21.1039 11.262 20.7458 10.9038 20.3039 10.9038H20.2964Z" fill="white"/>
<path fill-rule="evenodd" clip-rule="evenodd" d="M16.6096 12.0842C15.793 11.9631 14.9591 12.1026 14.2264 12.4828C13.4937 12.863 12.8995 13.4645 12.5283 14.2019C12.1572 14.9392 12.028 15.7748 12.1592 16.5898C12.2903 17.4048 12.6751 18.1577 13.2588 18.7414C13.8425 19.3251 14.5954 19.7099 15.4104 19.8411C16.2254 19.9722 17.061 19.843 17.7984 19.4719C18.5357 19.1008 19.1373 18.5066 19.5175 17.7739C19.8977 17.0412 20.0371 16.2072 19.9161 15.3907C19.7925 14.5577 19.4044 13.7866 18.809 13.1912C18.2136 12.5958 17.4425 12.2077 16.6096 12.0842ZM14.9633 13.903C15.3973 13.6778 15.8912 13.5952 16.3749 13.6669C16.8682 13.7401 17.325 13.9699 17.6776 14.3226C18.0303 14.6753 18.2602 15.132 18.3334 15.6254C18.4051 16.109 18.3225 16.603 18.0973 17.037C17.8721 17.471 17.5158 17.8229 17.079 18.0427C16.6423 18.2626 16.1473 18.3391 15.6646 18.2614C15.1819 18.1837 14.7359 17.9558 14.3902 17.6101C14.0445 17.2643 13.8165 16.8184 13.7389 16.3356C13.6612 15.8529 13.7377 15.358 13.9575 14.9212C14.1773 14.4845 14.5293 14.1282 14.9633 13.903Z" fill="white"/>
<path fill-rule="evenodd" clip-rule="evenodd" d="M7.38867 12.0944C7.38867 9.4955 9.4955 7.38867 12.0944 7.38867H19.9058C22.5047 7.38867 24.6116 9.4955 24.6116 12.0944V19.9058C24.6116 20.8549 24.3306 21.7384 23.8473 22.4776C23.8294 22.6237 23.7374 22.7468 23.6101 22.8084C22.7486 23.9062 21.4096 24.6116 19.9058 24.6116H12.0944C9.4955 24.6116 7.38867 22.5047 7.38867 19.9058V12.0944ZM12.0944 8.98867C10.3792 8.98867 8.98867 10.3792 8.98867 12.0944V19.9058C8.98867 21.6211 10.3792 23.0116 12.0944 23.0116H19.9058C21.6211 23.0116 23.0116 21.6211 23.0116 19.9058V12.0944C23.0116 10.3792 21.6211 8.98867 19.9058 8.98867H12.0944Z" fill="white"/>
</g>
</g>
<defs>
<clipPath id="clip0_13025_19480">
<rect width="18" height="18" fill="white" transform="translate(7 7)"/>
</clipPath>
</defs>
</svg>
