<svg width="24" height="24" viewBox="0 0 24 24" fill="none" xmlns="http://www.w3.org/2000/svg">
<g clip-path="url(#clip0_13092_6252)">
<path d="M5.08124 3.9784C4.7767 3.67387 4.28294 3.67387 3.9784 3.9784C3.67387 4.28294 3.67387 4.7767 3.9784 5.08123L10.8972 12L3.9784 18.9188C3.67387 19.2233 3.67387 19.7171 3.9784 20.0216C4.28294 20.3261 4.7767 20.3261 5.08124 20.0216L12 13.1028L18.9188 20.0216C19.2233 20.3261 19.7171 20.3261 20.0216 20.0216C20.3261 19.717 20.3261 19.2233 20.0216 18.9187L13.1029 12L20.0216 5.08127C20.3261 4.77673 20.3261 4.28298 20.0216 3.97844C19.7171 3.6739 19.2233 3.6739 18.9188 3.97844L12 10.8972L5.08124 3.9784Z" fill="black"/>
</g>
<defs>
<clipPath id="clip0_13092_6252">
<rect width="18" height="18" fill="white" transform="translate(3 3)"/>
</clipPath>
</defs>
</svg>
