<svg width="38" height="38" viewBox="0 0 38 38" fill="none" xmlns="http://www.w3.org/2000/svg">
<circle cx="19" cy="19" r="19" fill="#FEC80B"/>
<path d="M19.01 10.56C20.098 10.56 21.034 10.76 21.818 11.16C22.618 11.56 23.226 12.104 23.642 12.792C24.058 13.48 24.266 14.248 24.266 15.096C24.266 16.008 24.066 16.888 23.666 17.736C23.282 18.568 22.634 19.496 21.722 20.52C20.81 21.544 19.474 22.896 17.714 24.576H24.626L24.29 27H14.234V24.744C16.282 22.664 17.746 21.128 18.626 20.136C19.522 19.128 20.154 18.272 20.522 17.568C20.906 16.848 21.098 16.104 21.098 15.336C21.098 14.6 20.882 14.024 20.45 13.608C20.034 13.192 19.474 12.984 18.77 12.984C18.146 12.984 17.594 13.12 17.114 13.392C16.65 13.648 16.162 14.08 15.65 14.688L13.778 13.2C15.138 11.44 16.882 10.56 19.01 10.56Z" fill="black"/>
</svg>
