<svg width="38" height="38" viewBox="0 0 38 38" fill="none" xmlns="http://www.w3.org/2000/svg">
<circle cx="19" cy="19" r="19" fill="#FEC80B"/>
<path d="M18.9508 10.56C20.0228 10.56 20.9428 10.744 21.7108 11.112C22.4948 11.48 23.0788 11.976 23.4628 12.6C23.8628 13.224 24.0628 13.912 24.0628 14.664C24.0628 15.64 23.7828 16.456 23.2228 17.112C22.6628 17.752 21.8948 18.2 20.9188 18.456C21.9908 18.552 22.8708 18.936 23.5588 19.608C24.2468 20.28 24.5908 21.208 24.5908 22.392C24.5908 23.32 24.3508 24.16 23.8708 24.912C23.4068 25.664 22.7348 26.264 21.8548 26.712C20.9748 27.144 19.9348 27.36 18.7348 27.36C16.5268 27.36 14.7828 26.584 13.5028 25.032L15.2068 23.4C15.7508 23.944 16.2868 24.344 16.8148 24.6C17.3428 24.84 17.9268 24.96 18.5668 24.96C19.4308 24.96 20.1188 24.72 20.6308 24.24C21.1588 23.744 21.4228 23.08 21.4228 22.248C21.4228 21.32 21.1748 20.656 20.6788 20.256C20.1988 19.856 19.4788 19.656 18.5188 19.656H17.2468L17.6068 17.472H18.4708C19.2548 17.472 19.8788 17.256 20.3428 16.824C20.8228 16.392 21.0628 15.792 21.0628 15.024C21.0628 14.368 20.8468 13.856 20.4148 13.488C19.9828 13.104 19.4068 12.912 18.6868 12.912C18.0628 12.912 17.4948 13.032 16.9828 13.272C16.4708 13.496 15.9588 13.848 15.4468 14.328L13.8868 12.624C15.3428 11.248 17.0308 10.56 18.9508 10.56Z" fill="black"/>
</svg>
